<?xml version="1.0" encoding="utf-8"?>
<!-- Generator: Adobe Illustrator 25.4.1, SVG Export Plug-In . SVG Version: 6.00 Build 0)  -->
<svg version="1.1" xmlns="http://www.w3.org/2000/svg" xmlns:xlink="http://www.w3.org/1999/xlink" x="0px" y="0px"
	 viewBox="0 0 1280 1024" style="enable-background:new 0 0 1280 1024;" xml:space="preserve">
<style type="text/css">
	.st0{fill:none;stroke:#000000;stroke-width:6;stroke-miterlimit:10;}
	.st1{fill:none;stroke:#000000;stroke-width:12;stroke-miterlimit:10;}
	.st2{fill:#FFFFFF;}
	.st3{fill:#E6E6E6;}
	.st4{fill:none;stroke:#000000;stroke-width:8;stroke-miterlimit:10;}
	.st5{stroke:#000000;stroke-width:8;stroke-miterlimit:10;}
	.st6{stroke:#000000;stroke-width:0.25;stroke-miterlimit:10;}
	.st7{fill:#FFFFFF;stroke:#000000;stroke-width:0.25;stroke-miterlimit:10;}
</style>
<g id="Layer_7">
	<line class="st0" x1="640" y1="120.46" x2="640" y2="903.54"/>
	<polyline class="st1" points="619.93,512 1078.42,512 201.58,512 	"/>
	<polyline class="st0" points="625.81,526.19 950.01,201.99 329.99,822.01 	"/>
	<polyline class="st0" points="647.65,493.44 472.88,917.32 807.12,106.68 	"/>
	<polyline class="st1" points="607.14,528.61 248.72,709.76 934.18,363.31 	"/>
	<polyline class="st1" points="658.17,520.53 243.14,325.68 1036.86,698.32 	"/>
	<path class="st0" d="M714.6,547.02l-15.08,7.47l-11.38,5.64l-11,6.15l-13.45,7.52l-13.69,3.74l-9.99,2.73h-15.25h-15.52
		l-10.51-5.67l-13.86-7.47l-8.51-9.38l-8.45-9.32l-6.96-16.28L552.33,512v-17.56v-23.6l6.5-19.39L564,436l9.93-3.16
		c8.29-2.64,15.34-8.19,19.86-15.63l6.06-9.98l13.03,4.72c6.25,2.26,13.18,1.56,18.84-1.92l4.57-2.81l13.89,7.41
		c4.58,2.44,10.02,2.7,14.81,0.69l12.9-5.41l9.29,14.43c3.85,5.97,10.62,9.4,17.71,8.97l14.67-0.89l0.44,10.75
		c0.3,7.38,4.59,14.01,11.19,17.32l5.36,2.69l0.09,19.16c0.02,3.74,1.01,7.41,2.89,10.64l11.01,19l-5.12,7.34
		c-6.57,9.42-7.26,21.75-1.78,31.85l6.9,12.7l-11.44,15.65l-13.32,18.23l-20.32,19.63l-18.29,17.67l-24.64,6.9L640,648.28h-27.47
		h-28.72l-24.74-9.79l-32.64-12.92l-29.9-19.02l-19.3-12.28l-9.39-38.89L457.37,512v-42.76v-42.98l12.81-13.55
		c4.56-4.83,7.57-10.9,8.65-17.46l6.27-38.15l32.85-5.2c8.45-1.34,16.21-5.46,22.04-11.71l24.22-25.95l26.54,8.44
		c9.45,3,19.72,1.83,28.25-3.23l21-10.54l20.63,16.48c7.13,4.52,15.55,6.56,23.97,5.83l31.07-2.72l14.01,24.82
		c4.08,7.23,10.61,12.77,18.41,15.62l25.62,9.36l2.63,21.98c0.83,6.92,3.75,13.43,8.37,18.66l12.19,13.77l-3.72,26.53
		c-1.31,9.37,0.34,18.91,4.74,27.28L811.27,512l-13.29,16.74c-8.19,10.32-10.63,24.07-6.49,36.58l5.39,16.27l-14.87,28.14
		l-15.31,28.97l-31.83,21.25l-30.4,20.3l-33.76,7.11L640,693.84h-33.74h-41.24l-34.49-20.26l-32.83-19.29l-22.64-25.49l-20.5-23.08
		l-15.84-42.6l-19-51.12l3.97-50.93l3.8-48.83l21.08-30.05c2.74-3.91,4.57-8.38,5.34-13.1l6.09-37.08l44.01-12.31
		c7.48-2.09,14.21-6.28,19.39-12.06l26.81-29.93l40,4.58c4.92,0.56,9.9,0.09,14.63-1.38L640,269.95l30.88,17.57
		c8.09,4.61,17.68,5.83,26.67,3.41l37.79-10.17l18.56,32.66c5.45,9.6,14.44,16.69,25.03,19.77l32.33,9.39l2.65,28.04
		c0.86,9.06,4.35,17.66,10.05,24.75l13.52,16.81l-10.32,34.61c-4.61,15.46-1.73,32.19,7.79,45.22L849.57,512l-5.98,51.43
		l-4.87,41.87l-22.05,30.43l-22.24,30.7l-44.56,25.1l-32.36,18.23l-43.16,5.84L640,720.25l-36.39,1.29l-50.74,1.8l-51.92-21.07
		l-40.28-16.35l-20.47-33.67l-20.47-33.67l-15.7-47.81L384.74,512l2.18-56.18l2.38-61.52l20.3-29.97
		c6.01-8.88,9.87-19.03,11.25-29.66l4.82-36.99l54.18-17.14c7.32-2.31,13.97-6.36,19.4-11.78l34.36-34.34l44.8,7.37
		c9.43,1.55,19.1-0.36,27.23-5.39L640,215.14l32.53,25.67c10.91,8.61,25.14,11.8,38.68,8.68l40.91-9.42"/>
	<polyline class="st0" points="594.71,466.71 616.53,450.75 640,431.71 670.98,436.86 695.79,456.21 710.47,476.38 717.52,512 
		714.6,547.02 701.67,573.67 672.86,597.75 640,611.96 597.51,615.06 559.12,592.88 529.16,568.02 500.95,512 503.47,447.9 
		524.72,396.72 582.16,361.06 	"/>
	<path class="st0" d="M583.48,364.52H640h56.39l11.93,18.18c5.97,9.1,14.74,16,24.98,19.68l12.02,4.31l20.75,41.59L779.58,512"/>
	<path class="st0" d="M553.26,636.19"/>
	<path class="st1" d="M359.57,653.74l33.1,34.67l33.34,34.93l66.22,9.41l53.61,7.61l47.68,27.43L640,794.53l53.73,1.18l55.46,1.22
		l52.39-46.49l40.73-36.14l27.6-39.58l27.88-39.98l-5.77-42.63c-1.63-12.05,0.2-24.31,5.29-35.36L917.91,512l-20.99-32.02
		c-8.44-12.88-11.25-28.66-7.78-43.66l13.18-56.9l-24.53-22.09c-7.58-6.55-12.69-15.51-14.47-25.37l-6.6-36.69L826.7,280.6
		c-15.69-7.66-28.9-19.58-38.14-34.4l-23.45-37.63c0,0-57.5-5.58-58.82-6.57c-1.32-0.99-67.55-26.79-67.55-26.79l-32.65,22.42
		c-17.06,11.72-38.98,13.77-57.92,5.43l-31.95-14.07l-1.48,2.97c-18.3,36.75-52.4,63.12-92.58,71.59l-25.29,5.33l-29.63,48.62
		l-32.38,51.26v91.06L320.04,512l21.46,68.27l-21.46,91.78l47.87,28.72l28.95,54.37l73.98,19.55l37.42,56.83l70.18-22.47L640,840.42
		l53.75-18.41L763,832.98l46.95-37.46l83.67-29.89l-3.39-27.87c-2.31-18.99,4.98-37.89,19.45-50.41l36.5-31.59l-17.54-52.51
		c-4.14-12.4-3.36-25.91,2.18-37.74L955.87,512l-23.54-39.83c-8.87-15-11.9-32.74-8.51-49.83l11.83-59.77l-19.12-20.62
		c-8.73-9.42-13.99-21.53-14.91-34.34l-3.84-53.38l-46.02-16.12c-16.2-5.67-30.08-16.52-39.49-30.87l-28.62-43.61l-58.35,3.77
		c-15.45,1-30.74-3.6-43.07-12.96L640,122.38l-40.8,18.24c-19.75,8.83-42.58,7.32-61-4.04l-55.09-33.97l313.76,818.77L632.82,493.26
		"/>
	<path class="st1" d="M481.8,100.92l-15.42,43.5c-11.37,25.14-34.77,42.76-62.08,46.74l-74.31,10.83l3.74,3.74l616.27,616.27
		l-324.2-324.2"/>
	<path class="st1" d="M256.49,705.84l44.49,21.77c9,4.41,16.48,11.56,20.82,20.59c0.24,0.51,0.48,1.02,0.7,1.53l12.95,29.81
		c4.44,10.22,12.51,18.39,22.62,22.91l51.67,23.07c5.75,2.57,10.89,6.34,15.08,11.07l28.48,32.16
		c10.25,11.58,25.73,16.94,40.86,14.17l49.69-9.09c5.65-1.03,11.44-0.95,17.05,0.25l52.32,11.18c6.52,1.39,13.26,1.28,19.73-0.32
		l44.4-11.03c5.28-1.31,10.76-1.63,16.15-0.93l55.34,7.11c9.56,1.23,19.26-0.73,27.62-5.58l57.51-33.35
		c4.25-2.46,8.87-4.2,13.69-5.13l47-9.09c19.95-3.86,34.73-20.94,35.84-41.42l1.91-35.4c0.68-12.56,6.57-24.25,16.23-32.19
		l17.47-14.36c13.61-11.19,19.38-29.44,14.7-46.52l-11.92-43.5c-2.56-9.36-2.04-19.3,1.51-28.33l28.7-73.23"/>
	<path class="st1" d="M329.99,201.99l1.49,54.95c-0.96,21.76-9.95,42.39-25.24,57.9l-27.27,27.66l8.93,66.13
		c2.01,14.89-0.05,30.04-5.96,43.85L256.49,512l26.38,49.12c7.99,14.89,11.53,31.76,10.19,48.61l-6.46,80.9"/>
</g>
<g id="Layer_1">
	<g id="Layer_4">
	</g>
	<path d="M730.97,796.94c-18.5,0-35.69-9.48-48.4-26.68c-3.31-4.48-6.21-9.35-8.67-14.53c-2.47,5.18-5.37,10.05-8.67,14.53
		c-12.71,17.21-29.9,26.68-48.4,26.68c-18.5,0-35.69-9.48-48.4-26.68c-3.31-4.48-6.21-9.35-8.67-14.53
		c-2.47,5.18-5.37,10.05-8.67,14.53c-12.71,17.21-29.9,26.68-48.4,26.68c-18.5,0-35.69-9.48-48.4-26.68
		c-12.04-16.3-18.67-37.81-18.67-60.57c0-6.8,0.59-13.51,1.77-20.05c-71.01-27.08-111.51-68.14-111.51-113.46
		c0-22.3,10.17-44.25,29.48-63.79c-4.65-19.97-7.01-40.53-7.01-61.2c0-71.72,27.93-139.14,78.64-189.85s118.14-78.64,189.85-78.64
		c71.72,0,139.14,27.93,189.85,78.64c50.71,50.71,78.64,118.14,78.64,189.85c0,20.67-2.36,41.23-7.01,61.2
		c19.31,19.54,29.48,41.49,29.48,63.79c0,45.32-40.5,86.38-111.51,113.46c1.17,6.54,1.77,13.25,1.77,20.05
		c0,22.76-6.63,44.27-18.67,60.57C766.66,787.46,749.47,796.94,730.97,796.94z"/>
	<path class="st2" d="M897.79,576.18c0-21.82-11.02-42.41-30.55-60.6c5.28-20.58,8.09-42.16,8.09-64.39
		c0-142.76-115.73-258.49-258.49-258.49S358.33,308.43,358.33,451.19c0,22.23,2.81,43.8,8.09,64.39
		c-19.53,18.19-30.55,38.78-30.55,60.6c0,43.84,44.48,82.75,113.17,107.09c-2.22,8.24-3.43,17.14-3.43,26.42
		c0,42.66,25.55,77.25,57.07,77.25c31.52,0,57.07-34.59,57.07-77.25c0-0.93-0.03-1.85-0.05-2.76c0.03,0,0.07,0.01,0.1,0.01
		c-0.02,0.92-0.05,1.83-0.05,2.75c0,42.66,25.55,77.25,57.07,77.25s57.07-34.59,57.07-77.25c0-0.92-0.03-1.84-0.05-2.75
		c0.03,0,0.07-0.01,0.1-0.01c-0.02,0.92-0.05,1.84-0.05,2.76c0,42.66,25.55,77.25,57.07,77.25s57.07-34.59,57.07-77.25
		c0-9.28-1.21-18.17-3.43-26.42C853.3,658.93,897.79,620.02,897.79,576.18z"/>
	<g id="Layer_3">
		<polyline class="st3" points="426.09,312.28 426.09,312.28 426.09,312.28 426.09,312.28 		"/>
		<path class="st3" d="M413.57,364.29c-14.82,34.73-22.7,87.1,12.51,152.11c34.52,63.73,77.59,54.98,105.67,38.77
			c17.97-10.37,30.03-28.58,32.83-49.14l10.31-75.69c1.18-8.67,0.66-17.48-1.52-25.96c-11.87-46.15-44.88-188.1-134.8-83.38"/>
		<path class="st3" d="M635.1,381.34c-14.82,34.73-22.7,87.1,12.51,152.11c34.52,63.73,77.59,54.98,105.67,38.77
			c17.97-10.37,30.03-28.58,32.83-49.14l10.31-75.69c1.18-8.67,0.66-17.48-1.52-25.96c-11.87-46.15-44.88-188.1-134.8-83.38"/>
		<polygon class="st3" points="363.51,523.29 352.9,536.77 385.89,553.17 		"/>
		<path class="st3" d="M878.4,535.45l5.28,10.46c0.45,0.57-11.65,4.84-12.3,5.17l-27.41,13.62c-1.08,0.54-2.15-0.75-1.43-1.71
			l26.92-35.96C869.91,526.41,877.93,534.86,878.4,535.45z"/>
		<polygon class="st3" points="578.44,548.62 609.23,516.56 628.05,560.9 		"/>
		<polyline class="st3" points="591.95,197.68 578.64,199.41 581.28,238.25 605.6,255.75 598.23,281.17 608.35,255.42 
			585.68,237.81 591.95,197.68 		"/>
		<path class="st3" d="M606.55,667.84l-3.26,13.74l-4.18-2.26l4.62,14.09l-0.9,13.21l13,23.33v38.74v1.1c0,0-29.48,1.76-36.75-7.7
			s3.74,5.06,3.74,5.06s14.39,16.5,34.71,15.63c20.31-0.88,0-59.86,0-59.86l-9.62-19.6L606.55,667.84L606.55,667.84"/>
		<path class="st3" d="M628.27,760.37c0,0,23.64,8.78,32.78-10.56s-5.66,18.62-5.66,18.62l-28.84,14.36L628.27,760.37z"/>
		<path class="st3" d="M681.66,748.47c0,0,73.25,26.51,90.02,3.24c16.78-23.27,0,15.8,0,15.8l-33.98,19.43l-32.28-3.63
			L681.66,748.47z"/>
		<path class="st3" d="M452.15,746.56c0,0,60.54,30.94,88.02,13.19c27.49-17.75-6.88,11.45-6.88,11.45L506,786.94l-27.2-3.83
			l-21.73-24.92L452.15,746.56z"/>
	</g>
	<path class="st4" d="M896.79,576.18c0-21.82-11.02-42.41-30.55-60.6c5.28-20.58,8.09-42.16,8.09-64.39
		c0-142.76-115.73-258.49-258.49-258.49S357.33,308.43,357.33,451.19c0,22.23,2.81,43.8,8.09,64.39
		c-19.53,18.19-30.55,38.78-30.55,60.6c0,43.84,44.48,82.75,113.17,107.09c-2.22,8.24-3.43,17.14-3.43,26.42
		c0,7.05,0.7,13.88,2.01,20.38c6.6,32.78,28.76,56.88,55.07,56.88c15.21,0,29.02-8.05,39.25-21.17c10.98-14.08,17.82-34,17.82-56.08
		c0-0.93-0.03-1.85-0.05-2.76c0.03,0,0.07,0.01,0.1,0.01c-0.02,0.92-0.05,1.83-0.05,2.75c0,42.66,25.55,77.25,57.07,77.25
		s57.07-34.59,57.07-77.25c0-0.92-0.03-1.84-0.05-2.75c0.03,0,0.07-0.01,0.1-0.01c-0.02,0.92-0.05,1.84-0.05,2.76
		c0,42.66,25.55,77.25,57.07,77.25s57.07-34.59,57.07-77.25c0-9.28-1.21-18.17-3.43-26.42C852.3,658.93,896.79,620.02,896.79,576.18
		z"/>
	<ellipse class="st5" cx="498.71" cy="427.4" rx="79.73" ry="127.76"/>
	
		<ellipse transform="matrix(0.089 -0.996 0.996 0.089 215.2562 1119.6602)" class="st5" cx="719.73" cy="442.15" rx="127.76" ry="79.73"/>
	<path class="st5" d="M566.5,562.07c-1.67,6.92,4.31,14.3,13.37,16.49c9.06,2.19,17.75-1.64,19.43-8.55
		c-1.67,6.92,4.31,14.3,13.37,16.49c9.06,2.19,17.75-1.64,19.43-8.55c1.26-5.21-1.83-10.68-7.3-14l-14.06-26.99
		c-1.12-2.15-4.53-2.97-6.51-1.57l-24.84,17.57C573.01,553.4,567.76,556.86,566.5,562.07z"/>
	<polygon class="st6" points="592.73,192.7 630.14,192.7 600.87,233.85 622.66,252.56 614.63,262.47 617.16,270.61 609.89,267.31 
		598.23,281.17 608.35,255.42 585.68,237.81 	"/>
	<polygon class="st6" points="631.4,782.52 617.52,785.27 617.77,729.58 604.86,706.85 605.29,693.37 602.25,682.97 605.8,686.73 
		606.55,667.84 609.43,702.08 622.38,723.32 	"/>
	<path class="st6" d="M658.75,336.19c0,0,25.11-40.94,60.98-39.62c35.86,1.32,66.24,24.65,72.4,41.82s2.2-5.28,2.2-5.28
		s-17.59-47.98-74.6-49.74S658.75,336.19,658.75,336.19z"/>
	<path class="st6" d="M564.79,321.73c0,0-25.11-40.94-60.98-39.62s-66.24,24.65-72.4,41.82c-6.16,17.17-2.2-5.28-2.2-5.28
		s17.59-47.98,74.6-49.74S564.79,321.73,564.79,321.73z"/>
	<ellipse class="st7" cx="511.51" cy="469.7" rx="34.33" ry="42.3"/>
	<circle class="st6" cx="511.51" cy="469.7" r="9.89"/>
	
		<ellipse transform="matrix(0.1627 -0.9867 0.9867 0.1627 129.4227 1111.6947)" class="st7" cx="719.73" cy="479.59" rx="59.22" ry="43.57"/>
	
		<ellipse transform="matrix(0.1627 -0.9867 0.9867 0.1627 129.4228 1111.6948)" class="st6" cx="719.73" cy="479.59" rx="13.85" ry="12.56"/>
	<g id="Layer_2">
		<polygon points="355.34,512.39 387.38,555.16 362.29,496.42 		"/>
		<polygon points="873.18,522.05 841.14,564.82 866.23,506.08 		"/>
		<polygon points="554.56,702.58 560.42,659.86 562.92,703.29 		"/>
		<polygon points="668.74,703.49 673.36,667.84 677.05,702.42 		"/>
		<polygon points="794.88,690.63 768.36,634.74 778.84,680.96 		"/>
		<polygon points="436.82,688.41 459.46,637.48 452.86,680.72 		"/>
	</g>
</g>
</svg>
